<svg width="396" height="131" viewBox="0 0 396 131" fill="none" xmlns="http://www.w3.org/2000/svg">
<g clip-path="url(#clip0_35_501)">
<path d="M130.235 36.8277C130.215 34.8958 130.558 32.9781 131.245 31.18C131.889 29.5169 132.844 28.0003 134.056 26.7166C135.268 25.4477 136.726 24.4562 138.336 23.807C140.054 23.1135 141.885 22.7661 143.73 22.7836C146.39 22.715 149.01 23.461 151.258 24.9269C153.411 26.3749 155.054 28.4979 155.944 30.9818L150.893 32.2839C150.49 31.3521 149.901 30.5184 149.163 29.837C148.426 29.1556 147.557 28.6419 146.614 28.3294C145.701 28.0239 144.747 27.8701 143.787 27.874C142.366 27.8433 140.969 28.248 139.773 29.0367C138.619 29.818 137.7 30.9146 137.118 32.2035C136.471 33.6452 136.151 35.2188 136.181 36.8063C136.148 38.4061 136.468 39.9927 137.118 41.4466C137.697 42.7329 138.618 43.8249 139.773 44.5973C140.974 45.3724 142.37 45.7674 143.787 45.7332C144.779 45.7387 145.765 45.5795 146.708 45.2617C147.662 44.9363 148.536 44.4005 149.269 43.6917C150.117 42.8572 150.788 41.8522 151.242 40.7393L156.209 41.9181C155.352 44.6059 153.676 46.9378 151.43 48.5678C149.158 50.1215 146.477 50.9185 143.75 50.8504C141.899 50.8724 140.06 50.5267 138.336 49.8323C136.729 49.185 135.272 48.1995 134.056 46.9388C132.841 45.6657 131.885 44.1554 131.245 42.4968C130.558 40.6914 130.215 38.7666 130.235 36.8277Z" fill="white"/>
<path d="M160.088 23.0407H165.971V50.5824H160.088V23.0407Z" fill="white"/>
<path d="M181.111 23.0407C183.688 22.9766 186.241 23.5654 188.546 24.7554C190.598 25.845 192.302 27.519 193.455 29.5779C194.672 31.7989 195.287 34.3158 195.236 36.8652C195.292 39.3903 194.684 41.8841 193.476 44.0828C192.321 46.14 190.617 47.8135 188.566 48.9053C186.262 50.0953 183.709 50.6842 181.132 50.62H170.672V23.0407H181.111ZM180.804 45.5457C183.48 45.5457 185.55 44.7723 187.015 43.2255C188.478 41.6823 189.212 39.5658 189.212 36.892C189.212 34.2182 188.478 32.0695 187.015 30.4995C185.552 28.9295 183.48 28.1579 180.804 28.1579H176.561V45.5457H180.804Z" fill="white"/>
<path d="M211.724 28.1311H210.386L202.743 50.5985H196.667L206.335 23.0407H215.894L225.526 50.5824H219.445L211.724 28.1311ZM203.123 39.5818H218.742V44.6561H203.123V39.5818Z" fill="white"/>
<path d="M238.557 23.0407C241.134 22.9766 243.687 23.5654 245.991 24.7554C248.044 25.8461 249.75 27.5198 250.906 29.5779C252.114 31.8015 252.72 34.3182 252.661 36.8652C252.718 39.3898 252.112 41.8835 250.906 44.0828C249.747 46.1391 248.042 47.8121 245.991 48.9053C243.687 50.0953 241.134 50.6842 238.557 50.62H228.144V23.0407H238.557ZM238.255 45.5457C240.924 45.5457 242.994 44.7723 244.466 43.2255C245.929 41.6823 246.663 39.5658 246.663 36.892C246.663 34.2182 245.929 32.0695 244.466 30.4995C243.003 28.9295 240.926 28.1579 238.255 28.1579H234.012V45.5457H238.255Z" fill="white"/>
<path d="M275.636 28.1311H262.1V34.2289H272.226V39.0513H262.105V45.5456H275.641V50.6253H256.222V23.0407H275.641L275.636 28.1311Z" fill="white"/>
<path d="M284.081 42.4914C284.203 43.1847 284.493 43.8352 284.924 44.3829C285.342 44.8888 285.88 45.2747 286.486 45.5028C287.183 45.7617 287.921 45.8888 288.662 45.8778C289.754 45.9573 290.839 45.6366 291.723 44.9723C292.051 44.7042 292.316 44.3626 292.496 43.9736C292.677 43.5845 292.768 43.1582 292.765 42.7272C292.79 42.0688 292.564 41.4265 292.135 40.9375C291.625 40.4216 291.012 40.0266 290.339 39.7801C289.558 39.4657 288.671 39.1496 287.678 38.8317C286.663 38.5477 285.643 38.2101 284.622 37.8297C283.633 37.4663 282.69 36.9843 281.811 36.3936C280.9 35.7997 280.163 34.9629 279.678 33.9721C279.193 32.9814 278.979 31.8739 279.057 30.7674C279.012 29.2196 279.448 27.6975 280.301 26.4218C281.16 25.2021 282.339 24.2597 283.701 23.7052C286.73 22.5464 290.052 22.4784 293.124 23.5123C294.358 23.9479 295.473 24.6831 296.373 25.6556C297.26 26.6548 297.89 27.867 298.205 29.1813L292.78 30.3977C292.678 29.8404 292.411 29.3293 292.015 28.9349C291.61 28.5229 291.119 28.2129 290.578 28.0293C290.024 27.8339 289.445 27.722 288.86 27.6971C288.2 27.687 287.544 27.8071 286.928 28.0507C286.39 28.2594 285.915 28.6128 285.554 29.0742C285.212 29.5068 285.028 30.049 285.033 30.6067C285.019 30.9023 285.064 31.1977 285.167 31.4744C285.269 31.751 285.425 32.0029 285.627 32.2141C286.094 32.6717 286.647 33.0271 287.251 33.259C287.938 33.5484 288.688 33.8324 289.506 34.1217C290.547 34.4646 291.588 34.829 292.697 35.2255C293.759 35.5995 294.773 36.1052 295.717 36.7312C296.621 37.3329 297.379 38.1393 297.935 39.0889C298.528 40.1726 298.82 41.4036 298.778 42.6468C298.799 44.113 298.428 45.5569 297.705 46.8209C296.933 48.107 295.81 49.1316 294.478 49.768C292.767 50.5603 290.902 50.938 289.027 50.8718C287.349 50.8992 285.679 50.6198 284.096 50.0466C282.73 49.5533 281.498 48.7301 280.504 47.6461C279.551 46.5754 278.903 45.2556 278.63 43.831L284.081 42.4914Z" fill="white"/>
<path d="M131.417 70.2635H137.305V97.8053H131.417V70.2635Z" fill="white"/>
<path d="M164.711 70.2635V97.8053H158.75L147.895 79.9031V97.8053H142.006V70.2635H147.968L158.791 88.246V70.2635H164.711Z" fill="white"/>
<path d="M168.23 70.2635H190.706V75.3379H182.407V97.8053H176.524V75.3379H168.23V70.2635Z" fill="white"/>
<path d="M213.676 75.3379H200.14V81.4464H210.266V86.2688H200.145V92.7631H213.681V97.8374H194.262V70.2957H213.681L213.676 75.3379Z" fill="white"/>
<path d="M223.5 70.2635V92.7309H235.272V97.8053H217.623V70.2635H223.5Z" fill="white"/>
<path d="M238.448 70.2635H244.331V97.8053H238.448V70.2635Z" fill="white"/>
<path d="M268.259 79.1584C267.628 77.8834 266.651 76.8242 265.447 76.1095C264.282 75.4582 262.973 75.1261 261.647 75.145C260.233 75.126 258.845 75.5279 257.648 76.3024C256.462 77.0829 255.5 78.1764 254.863 79.4691C254.169 80.8834 253.821 82.4504 253.848 84.0344C253.809 85.6482 254.15 87.2476 254.842 88.6962C255.469 89.9822 256.436 91.0595 257.633 91.804C258.904 92.5727 260.36 92.9606 261.834 92.9239C262.777 92.932 263.713 92.7499 264.588 92.388C265.419 92.0394 266.183 91.5403 266.843 90.9145C267.503 90.29 268.07 89.5676 268.524 88.7712V87.0404H261.647V82.218H274.069V89.8589C273.419 91.3564 272.513 92.7213 271.393 93.8884C270.177 95.1661 268.738 96.1952 267.15 96.9212C265.364 97.712 263.434 98.0993 261.49 98.0571C259.621 98.0816 257.765 97.7341 256.024 97.0337C254.407 96.3784 252.938 95.3881 251.708 94.1241C250.474 92.8506 249.505 91.332 248.86 89.6607C247.506 86.0263 247.506 82.005 248.86 78.3707C249.502 76.7011 250.463 75.1814 251.687 73.9019C252.909 72.6354 254.373 71.6445 255.987 70.9923C257.729 70.2945 259.585 69.9471 261.454 69.9689C263.243 69.9555 265.02 70.2619 266.707 70.8744C268.295 71.4436 269.757 72.3325 271.008 73.4893C272.228 74.6254 273.161 76.0508 273.725 77.642L268.259 79.1584Z" fill="white"/>
<path d="M297.279 75.3379H283.742V81.4464H293.874V86.2688H283.742V92.7631H297.279V97.8374H277.854V70.2957H297.279V75.3379Z" fill="white"/>
<path d="M323.909 70.2635V97.8053H317.948L307.092 79.9031V97.8053H301.204V70.2635H307.171L317.984 88.246V70.2635H323.909Z" fill="white"/>
<path d="M327.428 70.2635H349.904V75.3379H341.61V97.8053H335.722V75.3379H327.428V70.2635Z" fill="white"/>
<path d="M372.874 75.3379H359.337V81.4464H369.469V86.2688H359.343V92.7631H372.879V97.8374H353.454V70.2957H372.874V75.3379Z" fill="white"/>
<path d="M381.324 89.6981C381.444 90.391 381.733 91.0415 382.162 91.5896C382.581 92.0944 383.118 92.4801 383.724 92.7095C384.423 92.9685 385.162 93.0956 385.905 93.0846C386.996 93.1642 388.079 92.8433 388.961 92.179C389.289 91.9109 389.553 91.5693 389.734 91.1803C389.914 90.7912 390.006 90.365 390.002 89.9339C390.03 89.2752 389.803 88.6321 389.372 88.1442C388.863 87.6283 388.25 87.2333 387.576 86.9868C386.802 86.6689 385.917 86.3527 384.921 86.0384C383.88 85.7544 382.88 85.4168 381.86 85.0364C380.873 84.6719 379.931 84.19 379.054 83.6004C378.211 83.0369 377.51 82.2768 377.008 81.382C376.466 80.3364 376.215 79.157 376.284 77.9741C376.238 76.4269 376.672 74.9047 377.523 73.6285C378.384 72.4091 379.565 71.4684 380.928 70.9172C383.954 69.7533 387.276 69.6834 390.346 70.719C391.58 71.155 392.694 71.8901 393.595 72.8623C394.486 73.8578 395.118 75.0687 395.433 76.3827L390.002 77.599C389.91 77.0398 389.65 76.5244 389.258 76.1255C388.854 75.7147 388.365 75.4048 387.826 75.22C387.27 75.0246 386.69 74.9127 386.103 74.8877C385.445 74.8775 384.791 74.9976 384.177 75.2414C383.637 75.4518 383.161 75.8048 382.797 76.2648C382.455 76.6975 382.271 77.2396 382.276 77.7973C382.262 78.0929 382.307 78.3883 382.41 78.665C382.512 78.9417 382.668 79.1935 382.87 79.4048C383.337 79.8696 383.889 80.234 384.494 80.4765C385.181 80.7658 385.931 81.0552 386.748 81.3391C387.79 81.6964 388.854 82.0643 389.94 82.443C390.997 82.8231 392.005 83.3322 392.944 83.9594C393.847 84.5611 394.604 85.3676 395.157 86.317C395.751 87.4024 396.042 88.6353 396 89.8803C396.021 91.3448 395.65 92.787 394.928 94.0491C394.156 95.3364 393.033 96.3614 391.7 96.9961C389.988 97.7763 388.124 98.1393 386.254 98.0571C384.576 98.085 382.906 97.8056 381.324 97.2319C379.957 96.7386 378.725 95.9154 377.731 94.8314C376.776 93.7621 376.127 92.4417 375.857 91.0163L381.324 89.6981Z" fill="white"/>
<g opacity="0.7">
<path d="M130.105 119.882C130.09 118.694 130.288 117.513 130.688 116.399C131.052 115.391 131.614 114.471 132.34 113.697C133.066 112.924 133.939 112.313 134.905 111.903C135.909 111.478 136.985 111.265 138.07 111.276C139.658 111.231 141.224 111.661 142.579 112.514C143.837 113.346 144.828 114.543 145.427 115.954L144.255 116.409C143.931 115.619 143.442 114.911 142.824 114.336C142.205 113.769 141.485 113.33 140.705 113.044C139.858 112.742 138.967 112.591 138.07 112.6C136.91 112.584 135.766 112.883 134.754 113.468C133.755 114.05 132.942 114.917 132.411 115.965C131.848 117.185 131.556 118.52 131.556 119.871C131.556 121.222 131.848 122.556 132.411 123.777C132.946 124.824 133.758 125.694 134.754 126.285C135.764 126.875 136.909 127.178 138.07 127.163C138.984 127.19 139.895 127.035 140.752 126.708C141.562 126.393 142.299 125.907 142.917 125.283C143.551 124.645 144.053 123.884 144.396 123.043L145.567 123.477C145 124.99 143.993 126.287 142.683 127.19C141.306 128.087 139.7 128.54 138.07 128.492C136.985 128.503 135.909 128.29 134.905 127.865C133.949 127.455 133.084 126.848 132.364 126.081C131.631 125.295 131.061 124.363 130.688 123.343C130.289 122.236 130.092 121.062 130.105 119.882Z" fill="white"/>
<path d="M159.552 112.723H150.415V119.062H157.282V120.342H150.415V127.046H159.552V128.321H148.988V111.453H159.552V112.723Z" fill="white"/>
<path d="M168.683 111.453C169.76 111.412 170.831 111.636 171.807 112.107C172.563 112.492 173.188 113.105 173.598 113.864C173.997 114.635 174.199 115.498 174.186 116.372C174.192 117.03 174.081 117.684 173.858 118.301C173.642 118.892 173.296 119.423 172.848 119.855C172.358 120.331 171.776 120.696 171.141 120.926C170.356 121.2 169.532 121.33 168.704 121.312H164.628V128.353H163.196V111.453H168.683ZM172.76 116.372C172.783 115.888 172.713 115.404 172.552 114.948C172.391 114.493 172.143 114.075 171.823 113.719C171.198 113.059 170.157 112.73 168.699 112.734H164.669V119.989H168.746C169.535 120.02 170.321 119.865 171.042 119.533C171.6 119.261 172.06 118.813 172.354 118.253C172.634 117.665 172.768 117.015 172.744 116.361L172.76 116.372ZM169.922 120.739L174.493 128.332H172.848L168.35 120.739H169.922Z" fill="white"/>
<path d="M188.134 112.723H178.997V119.062H185.864V120.342H178.997V127.046H188.134V128.321H177.571V111.453H188.134V112.723Z" fill="white"/>
<path d="M197.953 111.453H199.4V124.136C199.41 124.909 199.231 125.671 198.88 126.354C198.545 127.005 198.042 127.548 197.427 127.924C196.752 128.324 195.983 128.524 195.204 128.503C194.227 128.547 193.266 128.23 192.497 127.608C191.777 126.973 191.285 126.107 191.102 125.149L192.346 124.693C192.447 125.141 192.612 125.57 192.835 125.969C193.051 126.351 193.362 126.667 193.736 126.885C194.189 127.126 194.695 127.242 195.204 127.222C195.779 127.252 196.348 127.082 196.818 126.74C197.213 126.433 197.518 126.02 197.698 125.545C197.872 125.097 197.964 124.619 197.969 124.136L197.953 111.453Z" fill="white"/>
<path d="M213.978 112.723H204.841V119.062H211.703V120.342H204.841V127.046H213.978V128.321H203.409V111.453H213.978V112.723Z" fill="white"/>
<path d="M217.622 111.453H219.049V128.332H217.622V111.453Z" fill="white"/>
<path d="M228.639 111.453C229.726 111.408 230.808 111.632 231.794 112.107C232.55 112.492 233.175 113.105 233.585 113.864C233.982 114.636 234.183 115.499 234.168 116.372C234.174 117.03 234.062 117.684 233.84 118.301C233.625 118.891 233.282 119.423 232.835 119.855C232.344 120.33 231.763 120.695 231.127 120.926C230.343 121.199 229.519 121.33 228.691 121.312H224.614V128.353H223.183V111.453H228.639ZM232.715 116.372C232.739 115.888 232.668 115.404 232.507 114.948C232.346 114.493 232.098 114.075 231.778 113.719C231.153 113.059 230.112 112.73 228.654 112.734H224.63V119.989H228.706C229.494 120.021 230.278 119.865 230.997 119.533C231.558 119.263 232.02 118.814 232.314 118.253C232.6 117.666 232.739 117.016 232.721 116.361L232.715 116.372ZM229.883 120.739L234.449 128.332H232.835L228.337 120.739H229.883Z" fill="white"/>
<path d="M243.539 112.723H242.769L237.146 128.321H235.693L241.785 111.442H244.502L250.568 128.321H249.141L243.539 112.723ZM238.385 122.368H247.944V123.648H238.385V122.368Z" fill="white"/>
<path d="M253.285 124.27C253.413 124.757 253.628 125.215 253.921 125.62C254.266 126.099 254.72 126.483 255.243 126.74C255.945 127.068 256.712 127.222 257.482 127.19C258.78 127.19 259.74 126.885 260.361 126.274C260.664 125.986 260.904 125.635 261.066 125.244C261.227 124.853 261.306 124.432 261.298 124.007C261.325 123.391 261.141 122.784 260.777 122.293C260.391 121.815 259.903 121.435 259.351 121.184C258.694 120.874 258.015 120.616 257.32 120.412C256.68 120.235 256.06 120.037 255.462 119.823C254.89 119.619 254.343 119.348 253.832 119.013C253.356 118.702 252.961 118.275 252.682 117.77C252.382 117.189 252.237 116.536 252.26 115.879C252.23 115.036 252.445 114.203 252.877 113.486C253.309 112.769 253.939 112.201 254.686 111.855C255.541 111.451 256.474 111.253 257.414 111.276C258.229 111.257 259.04 111.399 259.804 111.694C260.435 111.949 261.004 112.344 261.47 112.851C261.89 113.312 262.21 113.86 262.407 114.459L261.163 114.941C261.014 114.527 260.787 114.146 260.496 113.821C260.145 113.417 259.714 113.096 259.231 112.878C258.643 112.618 258.007 112.492 257.367 112.508C256.733 112.502 256.104 112.628 255.519 112.878C254.984 113.104 254.518 113.474 254.171 113.95C253.823 114.443 253.64 115.039 253.65 115.648C253.615 116.27 253.821 116.881 254.223 117.347C254.642 117.785 255.151 118.121 255.712 118.333C256.331 118.585 257.013 118.821 257.763 119.046C258.403 119.255 259.023 119.48 259.627 119.721C260.194 119.945 260.73 120.246 261.22 120.616C261.676 120.964 262.052 121.412 262.318 121.928C262.61 122.522 262.751 123.182 262.73 123.847C262.736 124.645 262.546 125.432 262.178 126.135C261.792 126.864 261.2 127.456 260.481 127.833C259.555 128.298 258.532 128.519 257.503 128.476C256.578 128.5 255.659 128.33 254.8 127.978C254.095 127.689 253.464 127.236 252.957 126.654C252.5 126.117 252.171 125.477 252 124.784L253.285 124.27Z" fill="white"/>
<path d="M269.571 109.031H270.997L265.354 130.743H263.958L269.571 109.031Z" fill="white"/>
<path d="M278.536 111.453C279.613 111.412 280.684 111.636 281.66 112.107C282.416 112.492 283.04 113.105 283.45 113.864C283.849 114.635 284.052 115.498 284.039 116.372C284.044 117.03 283.933 117.684 283.711 118.301C283.494 118.892 283.149 119.423 282.701 119.855C282.211 120.331 281.629 120.696 280.993 120.926C280.209 121.2 279.384 121.33 278.557 121.312H274.48V128.353H273.048V111.453H278.536ZM282.612 116.372C282.636 115.888 282.565 115.404 282.404 114.948C282.243 114.493 281.995 114.075 281.675 113.719C281.05 113.059 280.009 112.73 278.551 112.734H274.522V119.989H278.598C279.387 120.02 280.173 119.865 280.894 119.533C281.453 119.261 281.913 118.813 282.206 118.253C282.486 117.665 282.62 117.015 282.597 116.361L282.612 116.372ZM279.775 120.739L284.346 128.332H282.701L278.203 120.739H279.775Z" fill="white"/>
<path d="M294.498 128.492C293.398 128.504 292.306 128.291 291.286 127.865C290.311 127.459 289.428 126.849 288.692 126.074C287.957 125.3 287.384 124.377 287.012 123.364C286.213 121.115 286.213 118.648 287.012 116.399C287.384 115.386 287.956 114.464 288.691 113.69C289.427 112.916 290.31 112.308 291.286 111.903C292.306 111.478 293.398 111.265 294.498 111.276C295.587 111.266 296.666 111.479 297.674 111.903C298.632 112.309 299.5 112.91 300.225 113.671C300.964 114.454 301.541 115.381 301.922 116.399C302.735 118.645 302.735 121.118 301.922 123.364C301.541 124.382 300.964 125.31 300.225 126.092C299.5 126.854 298.632 127.458 297.674 127.865C296.666 128.289 295.587 128.502 294.498 128.492ZM294.498 127.212C295.668 127.23 296.821 126.923 297.836 126.322C298.837 125.718 299.656 124.841 300.204 123.788C300.78 122.569 301.079 121.231 301.079 119.876C301.079 118.521 300.78 117.183 300.204 115.965C299.661 114.908 298.84 114.03 297.836 113.43C296.819 112.838 295.667 112.535 294.498 112.551C293.318 112.534 292.155 112.837 291.125 113.43C290.116 114.028 289.291 114.906 288.745 115.965C288.166 117.182 287.865 118.52 287.865 119.876C287.865 121.232 288.166 122.57 288.745 123.788C289.296 124.842 290.119 125.72 291.125 126.322C292.152 126.923 293.317 127.231 294.498 127.212Z" fill="white"/>
</g>
<g opacity="0.5">
<path d="M138.253 7.15867C138.256 7.62673 138.177 8.09151 138.019 8.5304C137.87 8.95369 137.628 9.33538 137.31 9.64492C136.962 9.97427 136.551 10.2244 136.103 10.379C135.548 10.5635 134.967 10.6522 134.385 10.6416H131.511V15.5927H130.506V3.69184H134.385C135.147 3.65885 135.907 3.81698 136.597 4.15266C137.126 4.42497 137.562 4.85673 137.847 5.39043C138.122 5.93614 138.262 6.54374 138.253 7.15867ZM134.385 9.70922C134.955 9.73244 135.522 9.62252 136.045 9.38773C136.443 9.20175 136.769 8.88507 136.972 8.48753C137.17 8.07459 137.268 7.61884 137.258 7.15867C137.279 6.81409 137.23 6.46892 137.115 6.1445C137.001 5.82008 136.822 5.52331 136.592 5.27254C136.144 4.81709 135.41 4.59204 134.385 4.59204H131.511V9.70922H134.385Z" fill="white"/>
<path d="M144.282 3.69186C145.048 3.6601 145.81 3.81814 146.505 4.15267C147.038 4.42457 147.479 4.85603 147.77 5.39044C148.047 5.93575 148.188 6.54333 148.181 7.15869C148.186 7.62338 148.106 8.08488 147.947 8.5197C147.792 8.92725 147.55 9.29359 147.239 9.59136C146.89 9.92048 146.479 10.1722 146.031 10.3308C145.478 10.5244 144.897 10.6169 144.313 10.6041H141.439V15.5927H140.434V3.69186H144.282ZM147.156 7.15869C147.173 6.81731 147.123 6.47592 147.009 6.15471C146.896 5.8335 146.721 5.539 146.494 5.28864C146.057 4.82782 145.318 4.59206 144.282 4.59206H141.439V9.70924H144.313C144.87 9.73081 145.423 9.62082 145.932 9.38774C146.327 9.19844 146.652 8.88266 146.859 8.48755C147.062 8.07642 147.164 7.62001 147.156 7.15869ZM145.156 10.2397L148.379 15.598H147.239L144.068 10.2397H145.156Z" fill="white"/>
<path d="M155.548 15.7159C154.772 15.7221 154.003 15.571 153.283 15.2712C152.603 14.9834 151.985 14.559 151.466 14.0227C150.943 13.4726 150.536 12.8179 150.269 12.099C149.98 11.3154 149.837 10.4829 149.847 9.64493C149.838 8.80522 149.981 7.97106 150.269 7.18547C150.534 6.47261 150.938 5.82327 151.456 5.27765C151.975 4.73202 152.597 4.30171 153.283 4.01335C154.003 3.71519 154.772 3.56589 155.548 3.57396C156.315 3.56531 157.076 3.7147 157.787 4.01335C158.464 4.30002 159.077 4.72677 159.588 5.26719C160.107 5.81811 160.515 6.47031 160.786 7.18547C161.08 7.96967 161.226 8.80432 161.218 9.64493C161.227 10.4838 161.08 11.3168 160.786 12.099C160.515 12.8158 160.108 13.4698 159.588 14.0227C159.076 14.5598 158.463 14.9845 157.787 15.2712C157.077 15.5715 156.316 15.7227 155.548 15.7159ZM155.548 14.8103C156.373 14.8225 157.186 14.6059 157.901 14.1834C158.609 13.7604 159.188 13.1424 159.573 12.3991C160.003 11.5501 160.216 10.6022 160.192 9.64493C160.215 8.68427 160.002 7.73313 159.573 6.88004C159.191 6.13448 158.611 5.51574 157.901 5.09572C157.184 4.67729 156.372 4.46276 155.548 4.47416C154.716 4.46287 153.895 4.67724 153.169 5.09572C152.462 5.51861 151.885 6.13675 151.503 6.88004C151.069 7.73215 150.853 8.68334 150.873 9.64493C150.852 10.6032 151.069 11.5511 151.503 12.3991C151.891 13.1416 152.471 13.7592 153.179 14.1834C153.901 14.6046 154.718 14.8209 155.548 14.8103Z" fill="white"/>
<path d="M167.741 3.69183H168.751V12.6349C168.757 13.1794 168.632 13.7169 168.387 14.1995C168.147 14.6605 167.786 15.043 167.345 15.3033C166.872 15.5858 166.331 15.7285 165.784 15.7159C165.094 15.7464 164.416 15.5221 163.873 15.0836C163.366 14.6344 163.019 14.0231 162.889 13.3475L163.764 13.026C163.835 13.3425 163.953 13.646 164.112 13.9262C164.265 14.1964 164.484 14.4202 164.748 14.5746C165.068 14.7462 165.428 14.8276 165.789 14.8103C166.195 14.831 166.596 14.7123 166.929 14.4728C167.206 14.2559 167.421 13.9649 167.549 13.6315C167.67 13.314 167.734 12.9761 167.736 12.6349L167.741 3.69183Z" fill="white"/>
<path d="M179.044 4.59203H172.599V9.06622H177.44V9.96642H172.599V14.6924H179.044V15.5926H171.589V3.69183H179.044V4.59203Z" fill="white"/>
<path d="M180.908 3.69183H189.384V4.59203H185.651V15.5926H184.656V4.59203H180.908V3.69183Z" fill="white"/>
<path d="M196.173 15.7159C195.397 15.7221 194.627 15.571 193.908 15.2712C193.235 14.9809 192.625 14.5566 192.112 14.0227C191.589 13.4726 191.181 12.8179 190.914 12.099C190.626 11.3154 190.483 10.4829 190.493 9.64493C190.483 8.80522 190.626 7.97106 190.914 7.18547C191.179 6.47261 191.583 5.82327 192.102 5.27765C192.62 4.73202 193.242 4.30171 193.929 4.01335C194.648 3.71519 195.418 3.56589 196.194 3.57396C196.961 3.56531 197.722 3.7147 198.432 4.01335C199.11 4.30002 199.723 4.72677 200.234 5.26719C200.753 5.81811 201.16 6.47031 201.431 7.18547C201.725 7.96967 201.872 8.80432 201.863 9.64493C201.872 10.4838 201.726 11.3168 201.431 12.099C201.16 12.8158 200.753 13.4698 200.234 14.0227C199.721 14.5598 199.108 14.9845 198.432 15.2712C197.716 15.5743 196.947 15.7256 196.173 15.7159ZM196.173 14.8103C196.998 14.8225 197.81 14.6059 198.526 14.1834C199.234 13.7604 199.812 13.1424 200.197 12.3991C200.628 11.5501 200.841 10.6022 200.817 9.64493C200.84 8.68427 200.627 7.73313 200.197 6.88004C199.815 6.13448 199.236 5.51574 198.526 5.09572C197.809 4.67729 196.997 4.46276 196.173 4.47416C195.34 4.46287 194.52 4.67724 193.793 5.09572C193.081 5.51624 192.499 6.13459 192.112 6.88004C191.684 7.73362 191.472 8.68473 191.497 9.64493C191.472 10.6018 191.683 11.5496 192.112 12.3991C192.5 13.1416 193.08 13.7592 193.788 14.1834C194.515 14.6073 195.338 14.8238 196.173 14.8103Z" fill="white"/>
</g>
<path opacity="0.75" d="M53.9371 94.3438C46.1899 94.3315 38.6371 96.8389 32.357 101.508C31.8917 101.839 31.3212 101.976 30.7613 101.891C30.2015 101.805 29.6942 101.504 29.3426 101.047L21.049 90.4858C20.8585 90.2395 20.7185 89.9559 20.6374 89.6523C20.5563 89.3487 20.5358 89.0314 20.5772 88.7194C20.6185 88.4074 20.7209 88.1073 20.878 87.8372C21.0352 87.567 21.2439 87.3325 21.4915 87.1476C30.8846 80.0025 42.2569 76.1466 53.9371 76.1466C65.6173 76.1466 76.9895 80.0025 86.3826 87.1476C86.6302 87.3325 86.8389 87.567 86.9961 87.8372C87.1532 88.1073 87.2556 88.4074 87.2969 88.7194C87.3383 89.0314 87.3178 89.3487 87.2367 89.6523C87.1556 89.9559 87.0156 90.2395 86.8251 90.4858L78.5263 101.052C78.1756 101.509 77.6688 101.81 77.1095 101.895C76.5502 101.979 75.9806 101.841 75.5171 101.508C69.2367 96.8396 61.6841 94.3323 53.9371 94.3438Z" fill="white"/>
<path opacity="0.5" d="M65.8178 117.235L55.7072 130.143C55.4963 130.411 55.2298 130.628 54.9272 130.777C54.6245 130.925 54.2933 131.003 53.9579 131.003C53.6224 131.003 53.2913 130.925 52.9886 130.777C52.6859 130.628 52.4194 130.411 52.2086 130.143L42.0511 117.235C41.8528 116.983 41.7081 116.691 41.6264 116.377C41.5448 116.064 41.5279 115.737 41.577 115.417C41.6261 115.096 41.74 114.79 41.9114 114.518C42.0827 114.246 42.3077 114.014 42.5717 113.837C45.9755 111.622 49.9202 110.446 53.9475 110.446C57.9748 110.446 61.9194 111.622 65.3232 113.837C65.5859 114.016 65.8092 114.249 65.9785 114.522C66.1478 114.795 66.2595 115.102 66.3061 115.422C66.3528 115.743 66.3334 116.07 66.2492 116.382C66.1651 116.694 66.0181 116.985 65.8178 117.235Z" fill="white"/>
<path d="M107.01 61.0419C103.078 57.9403 98.8981 55.187 94.5148 52.8115L93.359 52.1953V40.9429L86.7626 35.9007L80.1767 40.9697V46.6495C79.6561 46.4834 79.1354 46.3172 78.6148 46.1619V40.1873L82.707 37.0527V19.9758L62.5482 14.3656V27.1559H66.0052V43.3702L64.4433 43.1612V28.7634H44.4929V43.038C43.9722 43.0969 43.4516 43.1558 42.931 43.2255V27.1506H52.2554V0L28.3065 6.6711V30.671H34.3146V44.8008C33.794 44.9259 33.2733 45.0545 32.7527 45.1866V32.2785H17.0818V50.904L16.1863 51.3433C10.7686 54.0233 5.63401 57.2716 0.864242 61.0365C0.632241 61.2267 0.43916 61.4622 0.296161 61.7296C0.153161 61.997 0.0630816 62.2909 0.0311289 62.5944C-0.000823701 62.8978 0.0259848 63.2048 0.110004 63.4975C0.194024 63.7902 0.333588 64.0629 0.520627 64.2997L9.23594 75.445C9.60803 75.9121 10.1421 76.2118 10.7251 76.2808C11.3081 76.3498 11.8943 76.1827 12.3597 75.8148C24.3254 66.4903 38.9232 61.4442 53.9318 61.4442C68.9405 61.4442 83.5383 66.4903 95.504 75.8148C95.9684 76.1853 96.5553 76.3541 97.1391 76.285C97.7229 76.216 98.2572 75.9144 98.6278 75.445L107.364 64.3265C107.554 64.0884 107.695 63.8137 107.78 63.5185C107.865 63.2233 107.892 62.9135 107.859 62.6075C107.826 62.3014 107.734 62.0053 107.588 61.7364C107.442 61.4675 107.246 61.2314 107.01 61.0419Z" fill="white"/>
</g>
<defs>
<clipPath id="clip0_35_501">
<rect width="396" height="131" fill="white"/>
</clipPath>
</defs>
</svg>
